<svg width="54" height="35" viewBox="0 0 54 35" fill="none" xmlns="http://www.w3.org/2000/svg">
<path d="M45.925 0H7.90363C7.22771 0 6.63626 0.329669 6.29829 0.906589L0.299374 11.0439C-0.0385933 11.6208 -0.0385933 12.2801 0.299374 12.857L12.8042 34.0383C13.1422 34.6152 13.7336 34.9449 14.4095 34.9449H39.3346C40.0106 34.9449 40.602 34.6152 40.94 34.0383L53.5292 12.857C53.8672 12.2801 53.8672 11.6208 53.5292 11.0439L47.5303 0.906589C47.1923 0.329669 46.6009 0 45.925 0ZM44.1506 2.30768L39.8415 9.64282L35.448 2.30768H44.1506ZM31.2234 2.30768L26.8298 9.64282L22.4362 2.30768H31.2234ZM8.2416 2.30768H18.3806L13.3111 10.879H3.17209L8.2416 2.30768ZM14.7475 32.6372L3.17209 13.1867H13.3111L24.802 32.6372H14.7475ZM15.4234 11.9505L20.493 3.37911L31.9838 22.8296L26.9143 31.401L15.4234 11.9505ZM28.9421 32.6372L33.3356 25.1373L37.7292 32.6372H28.9421ZM44.9111 22.912L39.8415 31.4834L28.2662 11.9505L33.3356 3.37911L44.9111 22.912ZM46.2629 20.5218L41.1934 11.9505L46.2629 3.37911L51.3325 11.9505L46.2629 20.5218Z" fill="black"/>
</svg>
